# xmcd CD database file
#
# Track frame offsets:
#	150
#	8787
#	19229
#	32260
#	45206
#	59429
#	67800
#	78928
#	90607
#	104601
#	114706
#	127088
#	139628
#	151768
#	164644
#	178980
#	197291
#	206226
#	215921
#	230870
#
# Disc length: 3264 seconds
#
# Revision: 2
# Processed by: cddbd v1.5.2PL0 Copyright (c) Steve Scherf et al.
# Submitted via: CDex 1.51
#
DISCID=170cbe14
DTITLE=Various Artist - Country Legends [CD 9)
DYEAR=1900
DGENRE=Country
TTITLE0=terry gibbs - someone
TTITLE1=don williams - turn out the lights
TTITLE2=donny fargo - daddy
TTITLE3=lynn anderson - rose garden
TTITLE4=don williams - long walk from childhood
TTITLE5=willie nelson - slow down old world
TTITLE6=gene watson - you out doin'
TTITLE7=don david jr - country kings
TTITLE8=willie nelson - home is where you're happy
TTITLE9=barbara mandrell - please release me
TTITLE10=porter wagoner - If you go I'll follow you
TTITLE11=johnny paycheck - heavens almost as big as texas
TTITLE12=loretta lynn - blue kentucky girl
TTITLE13=johnny cash - folsom prisoner blues
TTITLE14=freddy fender - since I met you baby
TTITLE15=nitty gritty dirt band - long hard road
TTITLE16=eddie raven - thank god for kids
TTITLE17=dave dudley - cowboy boots
TTITLE18=kingston trio - tom dooley
TTITLE19=fankie laine - dont fence me in
EXTD=
EXTT0=
EXTT1=
EXTT2=
EXTT3=
EXTT4=
EXTT5=
EXTT6=
EXTT7=
EXTT8=
EXTT9=
EXTT10=
EXTT11=
EXTT12=
EXTT13=
EXTT14=
EXTT15=
EXTT16=
EXTT17=
EXTT18=
EXTT19=
PLAYORDER=
